<?xml version="1.0" encoding="UTF-8"?>
<svg xmlns="http://www.w3.org/2000/svg" version="1.1" viewBox="0 0 24 24">
  <defs>
    <style>
      .cls-1 {
        fill: #fff;
        stroke-width: 0px;
      }
    </style>
  </defs>
  <g id="Layer_1" data-name="Layer 1" focusable="false">
    <path class="cls-1" d="M9.8,9.8l-3.8,8.2,8.2-3.8,3.8-8.2-8.2,3.8ZM13.1,12.8c-.2.3-.5.5-.9.5,0,0-.1,0-.2,0-.3,0-.5,0-.8-.2-.3-.2-.5-.5-.5-.9,0-.4,0-.7.2-1,.2-.3.5-.5.9-.5.4,0,.7,0,1,.2.3.2.5.5.5.9,0,.3,0,.7-.2,1ZM12,3c5,0,9,4,9,9s-4,9-9,9S3,17,3,12,7,3,12,3M12,2C6.5,2,2,6.5,2,12s4.5,10,10,10,10-4.5,10-10S17.5,2,12,2h0Z"/>
  </g>
</svg>