<?xml version="1.0" encoding="UTF-8"?>
<svg id="Layer_1" data-name="Layer 1" xmlns="http://www.w3.org/2000/svg" version="1.1" viewBox="0 0 90 20">
  <defs>
    <style>
      .cls-1 {
        fill: #00a79d;
      }

      .cls-1, .cls-2 {
        stroke-width: 0px;
      }

      .cls-2 {
        fill: #fff;
      }
    </style>
  </defs>
  <g id="Layer_1-2" data-name="Layer 1-2" focusable="false">
    <g>
      <g>
        <path class="cls-1" d="M28,3.1c-.3-1.2-1.3-2.2-2.5-2.5C23.2,0,14.3,0,14.3,0,14.3,0,5.4,0,3.1.6,1.9.9.9,1.9.6,3.1c-.6,2.3-.6,6.9-.6,6.9,0,0,0,4.6.6,6.9.3,1.2,1.3,2.2,2.5,2.5,2.2.6,11.2.6,11.2.6,0,0,8.9,0,11.2-.6,1.2-.3,2.2-1.3,2.5-2.5.6-2.2.6-6.9.6-6.9,0,0,0-4.6-.6-6.9ZM11.4,14.3V5.7l7.4,4.3-7.4,4.3Z"/>
        <polygon class="cls-2" points="18.8 10 11.4 14.3 11.4 5.7 18.8 10"/>
      </g>
      <g id="youtube-paths">
        <path class="cls-2" d="M40.6,1.4l-3.2,11.6v5.6h-2.8v-5.6l-3.2-11.6h2.8l1.1,5.2c.3,1.3.5,2.4.6,3.3h0c0-.6.3-1.8.6-3.3l1.2-5.3h2.9Z"/>
        <path class="cls-2" d="M47.3,8.2c-.3-.8-.7-1.4-1.2-1.8s-1.3-.6-2.2-.6-1.7.2-2.3.6-1,1-1.3,1.8-.4,1.9-.4,3.2v1.8c0,1.3,0,2.4.4,3.2.2.8.6,1.4,1.2,1.8.6.4,1.3.6,2.3.6s1.7-.2,2.3-.6,1-1,1.2-1.8.4-1.9.4-3.2v-1.8c0-1.4,0-2.4-.4-3.2ZM44.9,14.2c0,.9,0,1.6-.2,2-.2.4-.4.6-.8.6s-.7-.2-.8-.6-.2-1.1-.2-2v-3.9c0-.9,0-1.6.2-2,.2-.4.4-.6.8-.6s.7.2.8.6c0,.4.2,1.1.2,2,0,0,0,3.9,0,3.9Z"/>
        <path class="cls-2" d="M56.8,6v12.5h-2.2l-.2-1.5h0c-.6,1.2-1.5,1.7-2.7,1.7s-1.5-.3-1.8-.8c-.4-.5-.6-1.4-.6-2.5V6h2.8v9.2c0,.6,0,1,.2,1.2,0,.2.3.4.6.4s.5,0,.7-.2.4-.3.5-.6V6h2.8,0Z"/>
        <polygon class="cls-2" points="64.5 1.4 64.5 3.7 61.7 3.7 61.7 18.6 58.9 18.6 58.9 3.7 56.1 3.7 56.1 1.4 64.5 1.4"/>
        <path class="cls-2" d="M71.3,6v12.5h-2.2l-.2-1.5h0c-.6,1.2-1.5,1.7-2.7,1.7s-1.5-.3-1.8-.8c-.4-.5-.6-1.4-.6-2.5V6h2.8v9.2c0,.6,0,1,.2,1.2,0,.2.3.4.6.4s.5,0,.7-.2.4-.3.5-.6V6h2.8-.1Z"/>
        <path class="cls-2" d="M80.6,8c-.2-.8-.5-1.4-.8-1.7-.4-.4-.9-.5-1.6-.5s-1,.2-1.5.4c-.5.3-.8.7-1,1.2h0V.8h-2.7v17.8h2.3l.3-1.2h0c.2.4.5.8,1,1,.4.2.9.4,1.5.4.9,0,1.6-.4,2.1-1.3s.7-2.2.7-4.1v-2c0-1.4,0-2.5-.3-3.3h0ZM78,13.2v2.1c0,.5-.2.9-.4,1.1-.2.2-.4.3-.7.3s-.5,0-.7-.2c-.2-.1-.3-.3-.5-.5v-7.1c0-.3.3-.6.5-.8s.5-.3.8-.3.5,0,.7.3c.2.2.3.6.3,1.1v3.9h0Z"/>
        <path class="cls-2" d="M89.6,13.2v-2.1c0-1.3,0-2.4-.3-3.1-.2-.8-.6-1.3-1.1-1.6-.5-.4-1.3-.5-2.2-.5-1.4,0-2.4.4-3,1.3s-.9,2.2-.9,4.1v2.2c0,1.8.3,3.2.8,4,.5.9,1.5,1.3,2.9,1.3s2-.3,2.7-.8c.6-.6,1-1.4,1-2.6s0-.3,0-.5h-2.4c0,.6,0,1.2-.3,1.5,0,.3-.4.5-.9.5s-.5,0-.7-.3c0-.2-.2-.5-.3-.9v-2.4h4.7ZM84.9,10.7v-1.8c0-.4,0-.7.3-.9,0-.2.4-.3.7-.3s.5,0,.7.3c0,.2.2.5.3.9v2.7h-2.1v-.9h0Z"/>
      </g>
    </g>
  </g>
</svg>